<svg xmlns="http://www.w3.org/2000/svg" viewBox="0 0 1600 900" role="img" aria-label="Detailed illustration of a mitochondrion: double membrane, folded cristae, matrix granules and mitochondrial DNA">
<defs>
  <radialGradient id="bg" cx="45%" cy="36%" r="82%">
    <stop offset="0" stop-color="#1b2e4c"/><stop offset="52%" stop-color="#0d1526"/><stop offset="100%" stop-color="#060a13"/>
  </radialGradient>
  <linearGradient id="memO" x1="0" y1="0" x2="1" y2="1">
    <stop offset="0" stop-color="#7fe9f5"/><stop offset="55%" stop-color="#22D3EE"/><stop offset="100%" stop-color="#0E7490"/>
  </linearGradient>
  <radialGradient id="matrix" cx="50%" cy="44%" r="66%">
    <stop offset="0" stop-color="rgba(34,211,238,.13)"/><stop offset="70%" stop-color="rgba(20,120,150,.06)"/><stop offset="100%" stop-color="rgba(10,60,90,.02)"/>
  </radialGradient>
  <linearGradient id="cr" x1="0" y1="0" x2="0" y2="1">
    <stop offset="0" stop-color="#F4DFAF"/><stop offset="100%" stop-color="#C9A25C"/>
  </linearGradient>
  <filter id="goldglow" x="-60%" y="-60%" width="220%" height="220%">
    <feDropShadow dx="0" dy="0" stdDeviation="5" flood-color="#DAC089" flood-opacity="0.5"/>
  </filter>
  <filter id="cyglow" x="-40%" y="-40%" width="180%" height="180%">
    <feDropShadow dx="0" dy="0" stdDeviation="10" flood-color="#22D3EE" flood-opacity="0.5"/>
  </filter>
  <filter id="soft" x="-60%" y="-60%" width="220%" height="220%"><feGaussianBlur stdDeviation="30"/></filter>
</defs>
<rect width="1600" height="900" fill="url(#bg)"/>
<circle cx="470" cy="300" r="250" fill="#0E7490" opacity="0.18" filter="url(#soft)"/>
<circle cx="1200" cy="640" r="270" fill="#DAC089" opacity="0.10" filter="url(#soft)"/>
<g transform="translate(255,175) rotate(5)" opacity="0.5"><rect x="-11" y="-3" width="22" height="6" rx="3" fill="#22D3EE"/><circle cx="-11" cy="0" r="9" fill="#4fdff0"/><circle cx="11" cy="0" r="9" fill="#4fdff0"/></g>
<g transform="translate(1360,220) rotate(20)" opacity="0.5"><rect x="-11" y="-3" width="22" height="6" rx="3" fill="#22D3EE"/><circle cx="-11" cy="0" r="9" fill="#4fdff0"/><circle cx="11" cy="0" r="9" fill="#4fdff0"/></g>
<g transform="translate(1430,470) rotate(-15)" opacity="0.5"><rect x="-11" y="-3" width="22" height="6" rx="3" fill="#22D3EE"/><circle cx="-11" cy="0" r="9" fill="#4fdff0"/><circle cx="11" cy="0" r="9" fill="#4fdff0"/></g>
<g transform="translate(205,655) rotate(10)" opacity="0.5"><rect x="-11" y="-3" width="22" height="6" rx="3" fill="#22D3EE"/><circle cx="-11" cy="0" r="9" fill="#4fdff0"/><circle cx="11" cy="0" r="9" fill="#4fdff0"/></g>
<g transform="translate(1120,140) rotate(-8)" opacity="0.5"><rect x="-11" y="-3" width="22" height="6" rx="3" fill="#22D3EE"/><circle cx="-11" cy="0" r="9" fill="#4fdff0"/><circle cx="11" cy="0" r="9" fill="#4fdff0"/></g>
<g transform="translate(370,780) rotate(18)" opacity="0.5"><rect x="-11" y="-3" width="22" height="6" rx="3" fill="#22D3EE"/><circle cx="-11" cy="0" r="9" fill="#4fdff0"/><circle cx="11" cy="0" r="9" fill="#4fdff0"/></g>
<g transform="translate(1300,775) rotate(-12)" opacity="0.5"><rect x="-11" y="-3" width="22" height="6" rx="3" fill="#22D3EE"/><circle cx="-11" cy="0" r="9" fill="#4fdff0"/><circle cx="11" cy="0" r="9" fill="#4fdff0"/></g>
<g transform="translate(140,430) rotate(3)" opacity="0.5"><rect x="-11" y="-3" width="22" height="6" rx="3" fill="#22D3EE"/><circle cx="-11" cy="0" r="9" fill="#4fdff0"/><circle cx="11" cy="0" r="9" fill="#4fdff0"/></g>
<g transform="translate(760,90) rotate(0)" opacity="0.5"><rect x="-11" y="-3" width="22" height="6" rx="3" fill="#22D3EE"/><circle cx="-11" cy="0" r="9" fill="#4fdff0"/><circle cx="11" cy="0" r="9" fill="#4fdff0"/></g>
<g transform="translate(1000,835) rotate(-6)" opacity="0.5"><rect x="-11" y="-3" width="22" height="6" rx="3" fill="#22D3EE"/><circle cx="-11" cy="0" r="9" fill="#4fdff0"/><circle cx="11" cy="0" r="9" fill="#4fdff0"/></g>
<g transform="translate(1250,235) rotate(26)" opacity="0.20"><ellipse rx="320" ry="146" fill="rgba(34,211,238,.05)" stroke="#3a6f86" stroke-width="6"/><ellipse rx="286" ry="116" fill="none" stroke="#345f79" stroke-width="4"/></g>
<g transform="translate(770,468) rotate(-9)"><ellipse rx="571" ry="304" fill="url(#matrix)"/><ellipse rx="575" ry="308" fill="none" stroke="url(#memO)" stroke-width="9" filter="url(#cyglow)"/><ellipse rx="555" ry="288" fill="none" stroke="#3fbcd6" stroke-width="5" opacity="0.85"/><path d="M -452,-181 C -452,64 -408,64 -408,-181" fill="none" stroke="url(#cr)" stroke-width="7" stroke-linecap="round" filter="url(#goldglow)"/><path d="M -443,-179 C -443,73 -417,73 -417,-179" fill="none" stroke="#E7C892" stroke-width="2.4" stroke-linecap="round" opacity="0.7"/><path d="M -394,213 C -394,-34 -350,-34 -350,213" fill="none" stroke="url(#cr)" stroke-width="7" stroke-linecap="round" filter="url(#goldglow)"/><path d="M -385,211 C -385,-43 -359,-43 -359,211" fill="none" stroke="#E7C892" stroke-width="2.4" stroke-linecap="round" opacity="0.7"/><path d="M -336,-236 C -336,10 -292,10 -292,-236" fill="none" stroke="url(#cr)" stroke-width="7" stroke-linecap="round" filter="url(#goldglow)"/><path d="M -327,-234 C -327,19 -301,19 -301,-234" fill="none" stroke="#E7C892" stroke-width="2.4" stroke-linecap="round" opacity="0.7"/><path d="M -278,254 C -278,8 -234,8 -234,254" fill="none" stroke="url(#cr)" stroke-width="7" stroke-linecap="round" filter="url(#goldglow)"/><path d="M -269,252 C -269,-1 -243,-1 -243,252" fill="none" stroke="#E7C892" stroke-width="2.4" stroke-linecap="round" opacity="0.7"/><path d="M -220,-268 C -220,-21 -176,-21 -176,-268" fill="none" stroke="url(#cr)" stroke-width="7" stroke-linecap="round" filter="url(#goldglow)"/><path d="M -211,-265 C -211,-12 -185,-12 -185,-265" fill="none" stroke="#E7C892" stroke-width="2.4" stroke-linecap="round" opacity="0.7"/><path d="M -162,277 C -162,31 -118,31 -118,277" fill="none" stroke="url(#cr)" stroke-width="7" stroke-linecap="round" filter="url(#goldglow)"/><path d="M -153,275 C -153,22 -127,22 -127,275" fill="none" stroke="#E7C892" stroke-width="2.4" stroke-linecap="round" opacity="0.7"/><path d="M -104,-283 C -104,-37 -60,-37 -60,-283" fill="none" stroke="url(#cr)" stroke-width="7" stroke-linecap="round" filter="url(#goldglow)"/><path d="M -95,-281 C -95,-28 -69,-28 -69,-281" fill="none" stroke="#E7C892" stroke-width="2.4" stroke-linecap="round" opacity="0.7"/><path d="M -46,286 C -46,40 -2,40 -2,286" fill="none" stroke="url(#cr)" stroke-width="7" stroke-linecap="round" filter="url(#goldglow)"/><path d="M -37,283 C -37,31 -11,31 -11,283" fill="none" stroke="#E7C892" stroke-width="2.4" stroke-linecap="round" opacity="0.7"/><path d="M 12,-286 C 12,-40 56,-40 56,-286" fill="none" stroke="url(#cr)" stroke-width="7" stroke-linecap="round" filter="url(#goldglow)"/><path d="M 21,-283 C 21,-31 47,-31 47,-283" fill="none" stroke="#E7C892" stroke-width="2.4" stroke-linecap="round" opacity="0.7"/><path d="M 70,283 C 70,36 114,36 114,283" fill="none" stroke="url(#cr)" stroke-width="7" stroke-linecap="round" filter="url(#goldglow)"/><path d="M 79,280 C 79,27 105,27 105,280" fill="none" stroke="#E7C892" stroke-width="2.4" stroke-linecap="round" opacity="0.7"/><path d="M 128,-276 C 128,-30 172,-30 172,-276" fill="none" stroke="url(#cr)" stroke-width="7" stroke-linecap="round" filter="url(#goldglow)"/><path d="M 137,-273 C 137,-21 163,-21 163,-273" fill="none" stroke="#E7C892" stroke-width="2.4" stroke-linecap="round" opacity="0.7"/><path d="M 186,266 C 186,19 230,19 230,266" fill="none" stroke="url(#cr)" stroke-width="7" stroke-linecap="round" filter="url(#goldglow)"/><path d="M 195,263 C 195,10 221,10 221,263" fill="none" stroke="#E7C892" stroke-width="2.4" stroke-linecap="round" opacity="0.7"/><path d="M 244,-252 C 244,-5 288,-5 288,-252" fill="none" stroke="url(#cr)" stroke-width="7" stroke-linecap="round" filter="url(#goldglow)"/><path d="M 253,-249 C 253,4 279,4 279,-249" fill="none" stroke="#E7C892" stroke-width="2.4" stroke-linecap="round" opacity="0.7"/><path d="M 302,233 C 302,-14 346,-14 346,233" fill="none" stroke="url(#cr)" stroke-width="7" stroke-linecap="round" filter="url(#goldglow)"/><path d="M 311,230 C 311,-23 337,-23 337,230" fill="none" stroke="#E7C892" stroke-width="2.4" stroke-linecap="round" opacity="0.7"/><path d="M 360,-208 C 360,39 404,39 404,-208" fill="none" stroke="url(#cr)" stroke-width="7" stroke-linecap="round" filter="url(#goldglow)"/><path d="M 369,-206 C 369,48 395,48 395,-206" fill="none" stroke="#E7C892" stroke-width="2.4" stroke-linecap="round" opacity="0.7"/><circle cx="-250" cy="30" r="7" fill="#F1DBA6" opacity="0.9" filter="url(#goldglow)"/><circle cx="-120" cy="-60" r="6" fill="#F1DBA6" opacity="0.9" filter="url(#goldglow)"/><circle cx="30" cy="70" r="7" fill="#F1DBA6" opacity="0.9" filter="url(#goldglow)"/><circle cx="150" cy="-40" r="6" fill="#F1DBA6" opacity="0.9" filter="url(#goldglow)"/><circle cx="300" cy="55" r="7" fill="#F1DBA6" opacity="0.9" filter="url(#goldglow)"/><circle cx="-40" cy="-20" r="5" fill="#F1DBA6" opacity="0.9" filter="url(#goldglow)"/><circle cx="230" cy="80" r="5" fill="#F1DBA6" opacity="0.9" filter="url(#goldglow)"/><circle cx="-320" cy="-30" r="5" fill="#F1DBA6" opacity="0.9" filter="url(#goldglow)"/><circle cx="90" cy="-80" r="5" fill="#F1DBA6" opacity="0.9" filter="url(#goldglow)"/><ellipse cx="-360" cy="70" rx="46" ry="30" transform="rotate(-24 -360 70)" fill="none" stroke="#63d8ea" stroke-width="3.4" stroke-dasharray="2 7" opacity="0.85"/><circle cx="-300" cy="-70" r="3" fill="#8fe6f2" opacity="0.7"/><circle cx="-180" cy="60" r="3" fill="#8fe6f2" opacity="0.7"/><circle cx="-60" cy="-90" r="3" fill="#8fe6f2" opacity="0.7"/><circle cx="60" cy="20" r="3" fill="#8fe6f2" opacity="0.7"/><circle cx="200" cy="-70" r="3" fill="#8fe6f2" opacity="0.7"/><circle cx="330" cy="-20" r="3" fill="#8fe6f2" opacity="0.7"/><circle cx="-140" cy="-30" r="3" fill="#8fe6f2" opacity="0.7"/><circle cx="120" cy="80" r="3" fill="#8fe6f2" opacity="0.7"/><circle cx="260" cy="30" r="3" fill="#8fe6f2" opacity="0.7"/></g>
</svg>